<?xml version="1.0" encoding="UTF-8" standalone="no"?>
<!-- Created with Inkscape (http://www.inkscape.org/) -->

<svg
   xmlns:dc="http://purl.org/dc/elements/1.1/"
   xmlns:cc="http://creativecommons.org/ns#"
   xmlns:rdf="http://www.w3.org/1999/02/22-rdf-syntax-ns#"
   xmlns:svg="http://www.w3.org/2000/svg"
   xmlns="http://www.w3.org/2000/svg"
   xmlns:sodipodi="http://sodipodi.sourceforge.net/DTD/sodipodi-0.dtd"
   xmlns:inkscape="http://www.inkscape.org/namespaces/inkscape"
   width="240mm"
   height="120mm"
   viewBox="0 0 240 120"
   version="1.1"
   id="svg8"
   inkscape:version="0.92.4 (5da689c313, 2019-01-14)"
   sodipodi:docname="abc.svg">
  <defs
     id="defs2">
    <inkscape:path-effect
       effect="spiro"
       id="path-effect28"
       is_visible="true" />
    <inkscape:path-effect
       effect="spiro"
       id="path-effect10"
       is_visible="true" />
  </defs>
  <sodipodi:namedview
     id="base"
     pagecolor="#ffffff"
     bordercolor="#666666"
     borderopacity="1.0"
     inkscape:pageopacity="0.0"
     inkscape:pageshadow="2"
     inkscape:zoom="0.99437388"
     inkscape:cx="284.27627"
     inkscape:cy="182.72055"
     inkscape:document-units="mm"
     inkscape:current-layer="layer1"
     showgrid="false"
     showborder="true"
     width="200mm"
     showguides="true"
     inkscape:guide-bbox="true"
     inkscape:window-width="1366"
     inkscape:window-height="708"
     inkscape:window-x="0"
     inkscape:window-y="0"
     inkscape:window-maximized="1">
    <inkscape:grid
       type="xygrid"
       id="grid815"
       units="mm"
       spacingx="10"
       spacingy="10"
       empspacing="4"
       dotted="false" />
  </sodipodi:namedview>
  <metadata
     id="metadata5">
    <rdf:RDF>
      <cc:Work
         rdf:about="">
        <dc:format>image/svg+xml</dc:format>
        <dc:type
           rdf:resource="http://purl.org/dc/dcmitype/StillImage" />
        <dc:title />
      </cc:Work>
    </rdf:RDF>
  </metadata>
  <g
     inkscape:label="Layer 1"
     inkscape:groupmode="layer"
     id="layer1"
     transform="translate(0,-177)">
    <path
       style="fill:none;stroke:#000000;stroke-width:0.26458332px;stroke-linecap:butt;stroke-linejoin:miter;stroke-opacity:1"
       d="m 68.648725,215.04726 c 2.017801,-1.42653 4.276872,-2.51089 6.652008,-3.19297 1.221298,-0.35073 2.470754,-0.59542 3.725124,-0.79824 4.128638,-0.66755 8.32352,-0.79824 12.505778,-0.79824 h 2.926881 c 0.589456,0 1.180363,-0.003 1.76651,0.0593 0.586146,0.0624 1.17284,0.19474 1.692536,0.4729 0.831061,0.44482 1.432966,1.23634 1.828923,2.09176 0.395955,0.85542 0.607655,1.78213 0.831885,2.69769 0.30731,1.25477 0.64331,2.50379 1.06432,3.72512 0.33056,0.95893 0.71688,1.91586 0.79824,2.92689 0.0569,0.70748 0,1.41887 0,2.12864 v 3.19296 c 0,0.70963 0.0339,1.41983 0,2.12865 -0.0666,1.39293 -0.48382,2.75563 -1.10645,4.00343 -0.62264,1.24781 -1.44744,2.38597 -2.352597,3.44681 -0.733657,0.85984 -1.523908,1.67413 -2.394722,2.39473 -3.222015,2.66623 -7.55387,3.94609 -11.707535,3.45904 -3.254836,1.79652 -6.757322,3.14363 -10.377133,3.99121 -5.212075,1.22041 -10.611771,1.3304 -15.96482,1.3304 h -5.055526 c -0.577267,0 -1.154385,0.0159 -1.731072,0.0418 -0.576687,0.0259 -1.158612,0.0534 -1.727972,-0.0418 -0.689269,-0.11527 -1.335637,-0.41272 -1.941187,-0.76156 -0.605549,-0.34884 -1.178865,-0.75134 -1.78394,-1.101 -1.414226,-0.81726 -2.978158,-1.33315 -4.523364,-1.86257 -1.337424,-0.45823 -2.675877,-0.93322 -3.923627,-1.59789 -1.24775,-0.66468 -2.409843,-1.53024 -3.260543,-2.65939 -0.955084,-1.2677 -1.477737,-2.81051 -1.81677,-4.3611 -0.339033,-1.55058 -0.509363,-3.1341 -0.844034,-4.68563 -0.390726,-1.8114 -1.002508,-3.56632 -1.596479,-5.32161 -0.235034,-0.69457 -0.469234,-1.39809 -0.532162,-2.12864 -0.06091,-0.70718 0,-1.41884 0,-2.12864 v -3.72513 -3.72513 c 0,-0.39978 -0.01235,-0.79943 -0.03241,-1.19871 -0.02005,-0.39927 -0.04136,-0.8031 0.03241,-1.19601 0.08468,-0.451 0.298293,-0.87336 0.589114,-1.22832 0.29082,-0.35495 0.657187,-0.6441 1.055982,-0.87111 0.797589,-0.45402 1.71017,-0.6582 2.61219,-0.82745 1.949649,-0.36583 3.925984,-0.59675 5.853766,-1.06432 1.422079,-0.34491 2.814866,-0.81795 4.257286,-1.06432 1.578114,-0.26955 3.188477,-0.26608 4.789445,-0.26608 h 2.926884 c 1.241806,0 2.484339,-0.0504 3.725124,0 1.022949,0.0415 2.049415,0.17615 3.01853,0.50625 0.969115,0.33009 1.881888,0.86357 2.569158,1.62239 0.6198,0.68433 1.038426,1.52896 1.350075,2.39806 0.311649,0.8691 0.523145,1.77022 0.778567,2.65747 0.35739,1.24145 0.802033,2.46016 1.064321,3.72512 0.166193,0.80152 0.25959,1.62287 0.532161,2.39472 0.187272,0.53031 0.459303,1.03883 0.532162,1.59649 0.069,0.5281 0,1.06389 0,1.59648 v 6.11984 14.63442 c 0,1.91197 -0.0528,3.82333 -0.105136,5.73459 -0.05234,1.91125 -0.07529,3.84777 0.371214,5.70687 0.409687,1.7058 1.214243,3.29229 2.128645,4.78944 1.022959,1.6749 2.208299,3.27799 3.725124,4.52337 0.989487,0.81241 2.102164,1.45838 3.192962,2.12864 1.698197,1.04349 3.354675,2.15381 5.055529,3.19297 0.509019,0.31099 1.027784,0.61823 1.59648,0.79824 0.431635,0.13662 0.882962,0.197 1.330402,0.26608 0.969737,0.14971 1.945658,0.26608 2.926884,0.26608 h 4.523367 c 0.591064,0 1.180525,0.0476 1.770077,0.0898 0.294776,0.0211 0.59247,0.0319 0.884662,-0.0124 0.292192,-0.0443 0.582228,-0.1485 0.804304,-0.34349 0.257176,-0.22581 0.401878,-0.55305 0.501703,-0.88041 0.09982,-0.32736 0.163188,-0.66697 0.296537,-0.98216 0.173434,-0.40994 0.458154,-0.762 0.752846,-1.0956 0.294692,-0.33359 0.604989,-0.65731 0.843637,-1.03304 0.377503,-0.59435 0.557951,-1.28987 0.715305,-1.97616 0.157353,-0.6863 0.300167,-1.38529 0.615097,-2.01504 0.320337,-0.64056 0.811017,-1.19267 1.06432,-1.86257 0.174188,-0.46067 0.229995,-0.95753 0.251685,-1.44956 0.02169,-0.49202 0.0144,-0.98482 0.0144,-1.47732 v -5.05553 -5.05552 -1.3304 c 0,-0.22227 0.0083,-0.44444 0.02179,-0.6663 0.01348,-0.22186 0.0277,-0.44742 -0.02179,-0.66411 -0.04431,-0.19404 -0.139573,-0.37238 -0.241515,-0.54332 -0.101942,-0.17095 -0.21208,-0.33813 -0.290646,-0.521 -0.1283,-0.29863 -0.167336,-0.62642 -0.220926,-0.947 -0.05359,-0.32058 -0.126901,-0.64786 -0.311234,-0.91556 -0.1269,-0.18429 -0.301024,-0.33165 -0.486798,-0.45637 -0.185773,-0.12472 -0.384499,-0.22869 -0.577522,-0.34187 -0.999563,-0.5861 -1.854542,-1.42357 -2.926885,-1.86256 -0.839826,-0.34381 -1.760154,-0.42106 -2.660803,-0.53216 -0.813754,-0.10038 -1.631188,-0.23335 -2.394723,-0.53216 -0.524852,-0.2054 -1.034352,-0.49132 -1.596482,-0.53216 -0.354288,-0.0257 -0.712405,0.0483 -1.064321,0 -0.362862,-0.0498 -0.70009,-0.2275 -1.064321,-0.26609 -0.264741,-0.0281 -0.53202,0 -0.798243,0 H 80.62234 68.914806 64.12536 c -0.532223,0 -1.064909,0.0263 -1.596482,0 -0.934344,-0.0462 -1.860277,-0.3142 -2.660804,-0.79824 -0.273688,-0.16549 -0.531867,-0.35514 -0.79824,-0.53216 -0.430807,-0.2863 -0.88263,-0.53928 -1.330401,-0.79824 -1.108462,-0.64106 -2.197938,-1.32268 -3.192965,-2.12864 -0.878774,-0.7118 -1.680223,-1.51814 -2.394723,-2.39472 -1.036035,-1.27105 -1.907383,-2.70719 -3.192965,-3.72513 -0.2296,-0.1818 -0.472141,-0.34996 -0.674307,-0.56184 -0.202166,-0.21189 -0.364462,-0.47682 -0.390014,-0.76856 -0.01549,-0.17689 0.01966,-0.35569 0,-0.53216 -0.02242,-0.20125 -0.118534,-0.39347 -0.266081,-0.53216"
       id="path8"
       inkscape:connector-curvature="0"
       inkscape:path-effect="#path-effect10"
       inkscape:original-d="m 68.648725,215.04726 c 0.03848,-0.0192 5.56034,-2.86072 6.652008,-3.19297 1.214877,-0.36974 2.469994,-0.60514 3.725124,-0.79824 6.699705,-1.03072 6.069823,-0.79824 12.505778,-0.79824 0.975627,0 1.951254,0 2.926881,0 1.095897,0 2.486546,-0.26352 3.459046,0.53216 1.756783,1.43737 1.971239,2.63456 2.660808,4.78945 0.39358,1.22995 0.71612,2.48156 1.06432,3.72512 0.27266,0.97381 0.64052,1.928 0.79824,2.92689 0.11066,0.70086 0,1.41909 0,2.12864 0,1.06432 0,2.12864 0,3.19296 0,0.70955 0.18669,1.4441 0,2.12865 -0.25564,0.93735 -2.932203,6.6929 -3.459047,7.45024 -0.644665,0.92671 -1.44916,1.77806 -2.394722,2.39473 -3.077718,2.0072 -8.798142,2.63563 -11.707535,3.45904 -3.847089,0.28489 -6.820278,2.95018 -10.377133,3.99121 -6.625598,1.9392 -8.605845,1.3304 -15.96482,1.3304 -1.685177,0 -3.37035,0 -5.055526,0 -1.153015,0 -2.342931,0.28936 -3.459044,0 -1.343845,-0.34841 -2.459894,-1.29117 -3.725127,-1.86256 -1.486087,-0.67114 -3.022256,-1.22573 -4.523364,-1.86257 -2.034069,-0.86294 -5.807601,-2.10639 -7.18417,-4.25728 -0.370919,-0.57957 -2.552549,-8.68589 -2.660804,-9.04673 -1.943406,-6.47803 -0.369906,-0.41531 -1.596479,-5.32161 -0.177388,-0.70955 -0.441445,-1.40291 -0.532162,-2.12864 -0.08801,-0.70407 0,-1.4191 0,-2.12864 0,-1.24171 0,-2.48342 0,-3.72513 0,-1.24171 0,-2.48342 0,-3.72513 0,-0.79824 -0.205677,-1.62343 0,-2.39472 0.512413,-1.92154 2.621925,-2.49399 4.257286,-2.92688 1.917213,-0.5075 3.913063,-0.65575 5.853766,-1.06432 1.431393,-0.30135 2.818971,-0.79797 4.257286,-1.06432 1.740365,-0.32229 3.091039,-0.26608 4.789445,-0.26608 0.97563,0 1.951257,0 2.926884,0 1.241708,0 2.491013,-0.13713 3.725124,0 2.018372,0.22426 4.050811,0.70998 5.587688,2.12864 1.701787,1.57088 1.528233,2.82544 2.128642,5.05553 0.33573,1.24699 0.738346,2.47554 1.064321,3.72512 0.206409,0.79123 0.321468,1.60462 0.532161,2.39472 0.144534,0.54201 0.439942,1.04317 0.532162,1.59649 0.08749,0.52492 0,1.06432 0,1.59648 0,2.03995 0,4.07989 0,6.11984 0,4.87814 0,9.75628 0,14.63442 0,2.31589 -0.122997,8.71792 0.266078,11.44146 0.309581,2.16706 0.966288,3.04591 2.128645,4.78944 0.975275,1.46292 2.460095,3.43906 3.725124,4.52337 0.971206,0.83246 2.128642,1.41909 3.192962,2.12864 2.420303,1.61354 2.84688,2.00369 5.055529,3.19297 0.523857,0.28207 1.037328,0.59491 1.59648,0.79824 0.425021,0.15455 0.886936,0.17738 1.330402,0.26608 1.852229,0.37044 0.878152,0.26608 2.926884,0.26608 1.507789,0 3.015578,0 4.523367,0 0.03776,0 3.05381,0.13915 3.459043,-0.26608 0.477629,-0.47763 0.450715,-1.28336 0.79824,-1.86257 0.456325,-0.76054 1.140159,-1.3681 1.596483,-2.12864 1.50118,-2.50197 0.185243,-1.24282 1.330402,-3.9912 1.209346,-2.90244 0.50443,0.377 1.06432,-1.86257 0.370446,-1.48178 0.266081,-1.31405 0.266081,-2.92688 0,-1.68517 0,-3.37035 0,-5.05553 0,-1.68517 0,-3.37035 0,-5.05552 0,-0.44347 0,-0.88694 0,-1.3304 0,-0.44347 0.0962,-0.8975 0,-1.33041 -0.08604,-0.3872 -0.396607,-0.69155 -0.532161,-1.06432 -0.220663,-0.60682 -0.199951,-1.30888 -0.53216,-1.86256 -0.228163,-0.38027 -0.730578,-0.50622 -1.06432,-0.79824 -1.474251,-1.28997 -0.694307,-1.20592 -2.926885,-1.86256 -0.867746,-0.25522 -1.775706,-0.34583 -2.660803,-0.53216 -0.800174,-0.16846 -1.604621,-0.32147 -2.394723,-0.53216 -0.542007,-0.14454 -1.046429,-0.42215 -1.596482,-0.53216 -0.347885,-0.0696 -0.712288,0.044 -1.064321,0 -0.362868,-0.0454 -0.702305,-0.21437 -1.064321,-0.26609 -0.263406,-0.0376 -0.532162,0 -0.798243,0 -1.153014,0 -2.306028,0 -3.459043,0 -3.902511,0 -7.805023,0 -11.707534,0 -1.596483,0 -3.192966,0 -4.789446,0 -0.532161,0 -1.066509,0.0482 -1.596482,0 -0.913969,-0.0831 -1.844937,-0.3903 -2.660804,-0.79824 -0.286027,-0.14301 -0.52706,-0.36267 -0.79824,-0.53216 -0.438557,-0.27409 -0.886936,-0.53216 -1.330401,-0.79824 -1.080106,-0.64806 -2.244021,-1.29831 -3.192965,-2.12864 -0.849572,-0.74337 -1.596483,-1.59648 -2.394723,-2.39472 -4.488243,-4.48824 -0.356325,-0.078 -3.192965,-3.72513 -0.429996,-0.55285 -0.897948,-0.66491 -1.064321,-1.3304 -0.04302,-0.17209 0.05609,-0.36388 0,-0.53216 -0.328795,-0.98639 -0.266081,0.32434 -0.266081,-0.53216"
       transform="translate(1.596482,10.909294)" />
    <text
       id="text14"
       xml:space="preserve"
       style="font-size:5.79928303px;font-family:monospace;-inkscape-font-specification:'monospace, Normal';fill:#000000;fill-opacity:1;stroke:none;stroke-width:0.57992828"
       y="219.0524"
       x="70.858055"
       transform="scale(0.89763091,1.1140436)"><tspan
         id="tspan12"
         sodipodi:role="line"
         x="70.858055"
         y="219.0524"
         style="stroke-width:0.57992828">$f(x) = e^x$</tspan></text>
    <path
       style="fill:none;stroke:#000000;stroke-width:0.26458332px;stroke-linecap:butt;stroke-linejoin:miter;stroke-opacity:1"
       d="m 78.493698,248.04122 -3.459046,-7.18417"
       id="path26"
       inkscape:connector-curvature="0"
       inkscape:path-effect="#path-effect28"
       inkscape:original-d="m 78.493698,248.04122 -3.459046,-7.18417" />
  </g>
</svg>
