<?xml version="1.0" encoding="UTF-8" standalone="no"?>
<!-- Created with Inkscape (http://www.inkscape.org/) -->

<svg
   xmlns:dc="http://purl.org/dc/elements/1.1/"
   xmlns:cc="http://creativecommons.org/ns#"
   xmlns:rdf="http://www.w3.org/1999/02/22-rdf-syntax-ns#"
   xmlns:svg="http://www.w3.org/2000/svg"
   xmlns="http://www.w3.org/2000/svg"
   xmlns:sodipodi="http://sodipodi.sourceforge.net/DTD/sodipodi-0.dtd"
   xmlns:inkscape="http://www.inkscape.org/namespaces/inkscape"
   width="240mm"
   height="120mm"
   viewBox="0 0 240 120"
   version="1.1"
   id="svg8"
   inkscape:version="0.92.4 (5da689c313, 2019-01-14)"
   sodipodi:docname="ter.svg">
  <defs
     id="defs2">
    <inkscape:path-effect
       effect="spiro"
       id="path-effect10"
       is_visible="true" />
  </defs>
  <sodipodi:namedview
     id="base"
     pagecolor="#ffffff"
     bordercolor="#666666"
     borderopacity="1.0"
     inkscape:pageopacity="0.0"
     inkscape:pageshadow="2"
     inkscape:zoom="0.99437388"
     inkscape:cx="284.27627"
     inkscape:cy="182.72055"
     inkscape:document-units="mm"
     inkscape:current-layer="layer1"
     showgrid="false"
     showborder="true"
     width="200mm"
     showguides="true"
     inkscape:guide-bbox="true"
     inkscape:window-width="1366"
     inkscape:window-height="708"
     inkscape:window-x="0"
     inkscape:window-y="0"
     inkscape:window-maximized="1">
    <inkscape:grid
       type="xygrid"
       id="grid815"
       units="mm"
       spacingx="10"
       spacingy="10"
       empspacing="4"
       dotted="false" />
  </sodipodi:namedview>
  <metadata
     id="metadata5">
    <rdf:RDF>
      <cc:Work
         rdf:about="">
        <dc:format>image/svg+xml</dc:format>
        <dc:type
           rdf:resource="http://purl.org/dc/dcmitype/StillImage" />
        <dc:title></dc:title>
      </cc:Work>
    </rdf:RDF>
  </metadata>
  <g
     inkscape:label="Layer 1"
     inkscape:groupmode="layer"
     id="layer1"
     transform="translate(0,-177)">
    <path
       style="fill:none;stroke:#000000;stroke-width:0.26458332px;stroke-linecap:butt;stroke-linejoin:miter;stroke-opacity:1"
       d="m 35.122604,210.25781 c 2.245786,-0.65713 4.578637,-1.01603 6.918089,-1.06432 0.975439,-0.0201 1.951235,0 2.926882,0 h 1.330401 c 0.558485,0 1.121202,0.0126 1.666324,0.13402 0.545122,0.12144 1.067626,0.34609 1.526642,0.66422 1.124552,0.7794 1.818703,2.06065 2.172653,3.38231 0.35395,1.32167 0.404768,2.70224 0.48815,4.06794 0.206043,3.37473 0.622522,6.7346 0.79824,10.11105 0.07201,1.38359 0.103031,2.7779 -0.104366,4.14775 -0.207397,1.36985 -0.6647,2.72341 -1.492117,3.83466 -0.97525,1.3098 -2.403636,2.21294 -3.459043,3.45905 -0.449529,0.53076 -0.82652,1.1181 -1.236681,1.67984 -0.410161,0.56173 -0.860864,1.10505 -1.424122,1.51312 -0.570418,0.41326 -1.24007,0.67517 -1.926393,0.83366 -0.686324,0.15848 -1.392016,0.21783 -2.096027,0.24076 -1.408022,0.0459 -2.8173,-0.0101 -4.226069,-0.0101 h -8.514572 c -0.932804,0 -1.86531,0.0287 -2.796952,0.0752 -0.931642,0.0465 -1.873784,0.096 -2.790735,-0.0752 -1.397391,-0.26096 -2.648737,-1.03648 -3.747611,-1.9383 -1.098874,-0.90181 -2.078805,-1.94062 -3.170477,-2.85114 -2.328171,-1.94184 -5.102842,-3.25295 -7.7163296,-4.78945 -0.7129471,-0.41915 -1.4431421,-0.88369 -1.8625624,-1.59648 -0.3666044,-0.62303 -0.4546619,-1.37297 -0.4327729,-2.09553 0.021889,-0.72255 0.1451054,-1.4392 0.1666925,-2.16176 0.025279,-0.84615 -0.088957,-1.68934 -0.1522779,-2.5335 -0.063321,-0.84415 -0.074075,-1.70631 0.1522779,-2.52202 0.2485259,-0.89561 0.7735976,-1.69465 1.397257,-2.38381 0.6236594,-0.68915 1.3472334,-1.27909 2.0617872,-1.87348 1.6937342,-1.4089 3.3533892,-2.85855 5.0555262,-4.25729 0.668929,-0.5497 1.347446,-1.09363 2.094105,-1.53196 0.74666,-0.43832 1.568408,-0.77022 2.429261,-0.86276 0.882339,-0.0948 1.773381,0 2.660803,0 h 4.789447 c 0.577394,0 1.154614,-0.0172 1.731331,-0.0452 0.576717,-0.0279 1.159547,-0.0577 1.727713,0.0452 0.864409,0.15642 1.638235,0.61778 2.394722,1.06432 1.762307,1.04026 3.564049,2.05785 5.055526,3.45905 1.477493,1.38806 2.598658,3.10398 3.725124,4.78944 2.081274,3.11408 4.239071,6.19926 5.853769,9.5789 0.56992,1.19287 1.073152,2.42837 1.330402,3.72512 0.432495,2.18013 0.266081,4.42939 0.266081,6.65201 v 5.85377 c 0,0.22253 0.01014,0.44491 0.02658,0.66683 0.01644,0.22192 0.03361,0.44933 -0.02658,0.66357 -0.07758,0.27615 -0.27886,0.49899 -0.486472,0.69692 -0.207613,0.19793 -0.431714,0.38665 -0.577852,0.63348 -0.143497,0.24237 -0.201831,0.524 -0.266078,0.79824 -0.103265,0.44078 -0.227723,0.87931 -0.266081,1.3304 -0.0451,0.53043 0,1.06414 0,1.59648 v 1.86257 2.6608 0.79824 c 0,0.17748 -0.01871,0.35567 0,0.53216 0.0308,0.29049 0.19514,0.55227 0.396975,0.76345 0.201835,0.21117 0.442134,0.38091 0.667346,0.56695 0.38721,0.31986 0.730757,0.68885 1.064321,1.06432 0.333839,0.37578 0.662382,0.76249 1.064321,1.06433 0.413823,0.31076 0.892802,0.52196 1.330401,0.79824 0.169101,0.10676 0.332146,0.22332 0.505983,0.32219 0.173838,0.0989 0.360554,0.1804 0.558338,0.20997 0.3518,0.0526 0.714021,-0.0618 1.064324,0 0.136891,0.0242 0.26839,0.0748 0.406082,0.0938 0.06884,0.01 0.139378,0.011 0.207491,-0.003 0.06811,-0.0138 0.133866,-0.0436 0.184667,-0.091 0.04182,-0.039 0.07257,-0.0891 0.09241,-0.14282 0.01984,-0.0537 0.02906,-0.1109 0.03109,-0.16808 0.0041,-0.11437 -0.01939,-0.22778 -0.04385,-0.33957 -0.04891,-0.22359 -0.07965,-0.45105 -0.07965,-0.67993 v -2.39473 -6.65201 -9.04673 c 0,-1.29305 0.05003,-2.58528 0.09767,-3.87746 0.04764,-1.29217 0.06298,-2.61826 -0.363753,-3.83887 -0.262139,-0.74982 -0.686244,-1.43007 -1.064321,-2.12864 -0.982219,-1.81484 -1.665559,-3.77996 -2.660804,-5.58769 -0.490892,-0.89164 -1.069476,-1.75674 -1.86256,-2.39472 -0.973338,-0.78298 -2.210278,-1.17357 -3.44617,-1.35527 -1.235891,-0.1817 -2.490824,-0.17055 -3.738001,-0.24121 -1.419953,-0.0805 -2.835056,-0.26736 -4.257286,-0.26608 -0.887358,8e-4 -1.776608,0.0749 -2.660803,0 -0.356184,-0.0302 -0.71028,-0.0844 -1.067203,-0.10396 -0.356924,-0.0196 -0.720494,-0.003 -1.061439,0.10396 -0.39627,0.12482 -0.746665,0.36858 -1.047861,0.65475 -0.301195,0.28616 -0.557598,0.61538 -0.814702,0.94173 -0.428777,0.54427 -0.863261,1.08476 -1.330402,1.59648 -0.338384,0.37067 -0.693647,0.72594 -1.064321,1.06432"
       id="path8"
       inkscape:connector-curvature="0"
       inkscape:path-effect="#path-effect10"
       inkscape:original-d="m 35.122604,210.25781 c 3.605281,-0.72106 3.612313,-0.86986 6.918089,-1.06432 0.973945,-0.0573 1.951254,0 2.926882,0 0.443468,0 0.886936,0 1.330401,0 1.449991,0 1.94949,-0.23799 3.192966,0.79824 2.551207,2.12601 2.090877,3.78644 2.660803,7.45025 0.952257,6.12165 0.79824,5.10688 0.79824,10.11105 0,3.34183 0.435994,4.88022 -1.596483,7.98241 -0.893614,1.36394 -2.355029,2.25903 -3.459043,3.45905 -0.938019,1.01958 -1.523492,2.40179 -2.660803,3.19296 -2.204871,1.53382 -5.931771,1.06432 -8.248489,1.06432 -2.838191,0 -5.676381,0 -8.514572,0 -1.862561,0 -3.771952,0.41503 -5.587687,0 -2.535226,-0.57948 -4.944461,-3.37971 -6.918088,-4.78944 -7.3816145,-5.27259 -1.233247,-0.25129 -7.7163296,-4.78945 -0.669897,-0.46893 -1.4340012,-0.90007 -1.8625624,-1.59648 -0.3789688,-0.61583 -0.2660804,-3.82803 -0.2660804,-4.25729 0,-1.68517 -0.5867553,-3.4758 0,-5.05552 0.636646,-1.71405 2.2188347,-2.91373 3.4590442,-4.25729 1.4334162,-1.55287 3.3181412,-3.01629 5.0555262,-4.25729 1.125708,-0.80407 3.110463,-2.2181 4.523366,-2.39472 0.880085,-0.11001 1.773869,0 2.660803,0 1.596482,0 3.192964,0 4.789447,0 1.153015,0 2.324627,-0.20625 3.459044,0 0.859438,0.15627 1.622708,0.65561 2.394722,1.06432 1.030743,0.54569 4.509752,2.89144 5.055526,3.45905 1.401829,1.4579 2.525366,3.1612 3.725124,4.78944 2.91855,3.96089 4.014484,5.33439 5.853769,9.5789 0.524253,1.20982 1.044374,2.43799 1.330402,3.72512 0.34771,1.5647 0.266081,5.02277 0.266081,6.65201 0,1.95125 0,3.90251 0,5.85377 0,0.44346 0.107555,0.90017 0,1.3304 -0.22823,0.91291 -0.653622,0.6459 -1.064324,1.3304 -0.144301,0.2405 -0.198054,0.52614 -0.266078,0.79824 -0.109688,0.43875 -0.225137,0.88001 -0.266081,1.3304 -0.04818,0.52998 0,1.06432 0,1.59648 0,0.62086 0,1.24171 0,1.86257 0,0.88693 0,1.77386 0,2.6608 0,0.26608 0,0.53216 0,0.79824 0,0.17739 -0.04302,0.36007 0,0.53216 0.144788,0.57915 0.675275,0.94136 1.064321,1.3304 0.354774,0.35478 0.709546,0.70955 1.064321,1.06432 0.354774,0.35478 0.668282,0.7563 1.064321,1.06433 0.408228,0.31751 0.878316,0.54708 1.330401,0.79824 0.346734,0.19263 0.679516,0.43595 1.064321,0.53216 0.344183,0.086 0.709549,0 1.064324,0 0.266078,0 0.661342,0.22816 0.79824,0 0.22816,-0.38027 0,-0.88694 0,-1.3304 0,-0.79824 0,-1.59649 0,-2.39473 0,-2.21733 0,-4.43467 0,-6.65201 0,-3.01557 0,-6.03115 0,-9.04673 0,-0.69852 0.167682,-6.15478 -0.266081,-7.71633 -0.21232,-0.76435 -0.742133,-1.40371 -1.064321,-2.12864 -1.264388,-2.84487 -0.854311,-2.80847 -2.660804,-5.58769 -0.551124,-0.84788 -1.059259,-1.78043 -1.86256,-2.39472 -1.73059,-1.32339 -5.430753,-1.43708 -7.184171,-1.59648 -1.416023,-0.12873 -2.836471,-0.21143 -4.257286,-0.26608 -0.886277,-0.0341 -1.773867,0 -2.660803,0 -0.709546,0 -1.469843,-0.26352 -2.128642,0 -0.759227,0.30369 -1.284351,1.01827 -1.862563,1.59648 -0.489823,0.48983 -0.866997,1.08159 -1.330402,1.59648 -0.335635,0.37293 -0.709546,0.70955 -1.064321,1.06432" />
  </g>
</svg>
