<?xml version="1.0" encoding="UTF-8" standalone="no"?>
<!-- Created with Inkscape (http://www.inkscape.org/) -->

<svg
   xmlns:dc="http://purl.org/dc/elements/1.1/"
   xmlns:cc="http://creativecommons.org/ns#"
   xmlns:rdf="http://www.w3.org/1999/02/22-rdf-syntax-ns#"
   xmlns:svg="http://www.w3.org/2000/svg"
   xmlns="http://www.w3.org/2000/svg"
   xmlns:sodipodi="http://sodipodi.sourceforge.net/DTD/sodipodi-0.dtd"
   xmlns:inkscape="http://www.inkscape.org/namespaces/inkscape"
   width="210mm"
   height="120mm"
   viewBox="0 0 210 120"
   version="1.1"
   id="svg8"
   inkscape:version="0.92.4 (5da689c313, 2019-01-14)"
   sodipodi:docname="ff.svg">
  <defs
     id="defs2">
    <marker
       inkscape:stockid="DotM"
       orient="auto"
       refY="0"
       refX="0"
       id="marker3658"
       style="overflow:visible"
       inkscape:isstock="true">
      <path
         id="path3656"
         d="m -2.5,-1 c 0,2.76 -2.24,5 -5,5 -2.76,0 -5,-2.24 -5,-5 0,-2.76 2.24,-5 5,-5 2.76,0 5,2.24 5,5 z"
         style="fill:#000000;fill-opacity:1;fill-rule:evenodd;stroke:#000000;stroke-width:1.00000003pt;stroke-opacity:1"
         transform="matrix(0.4,0,0,0.4,2.96,0.4)"
         inkscape:connector-curvature="0" />
    </marker>
    <marker
       inkscape:isstock="true"
       style="overflow:visible"
       id="marker1702"
       refX="0"
       refY="0"
       orient="auto"
       inkscape:stockid="DotM"
       inkscape:collect="always">
      <path
         transform="matrix(0.4,0,0,0.4,2.96,0.4)"
         style="fill:#000000;fill-opacity:1;fill-rule:evenodd;stroke:#000000;stroke-width:1.00000003pt;stroke-opacity:1"
         d="m -2.5,-1 c 0,2.76 -2.24,5 -5,5 -2.76,0 -5,-2.24 -5,-5 0,-2.76 2.24,-5 5,-5 2.76,0 5,2.24 5,5 z"
         id="path1700"
         inkscape:connector-curvature="0" />
    </marker>
    <marker
       inkscape:stockid="DotM"
       orient="auto"
       refY="0"
       refX="0"
       id="DotM"
       style="overflow:visible"
       inkscape:isstock="true"
       inkscape:collect="always">
      <path
         id="path1006"
         d="m -2.5,-1 c 0,2.76 -2.24,5 -5,5 -2.76,0 -5,-2.24 -5,-5 0,-2.76 2.24,-5 5,-5 2.76,0 5,2.24 5,5 z"
         style="fill:#000000;fill-opacity:1;fill-rule:evenodd;stroke:#000000;stroke-width:1.00000003pt;stroke-opacity:1"
         transform="matrix(0.4,0,0,0.4,2.96,0.4)"
         inkscape:connector-curvature="0" />
    </marker>
    <inkscape:path-effect
       effect="spiro"
       id="path-effect89607"
       is_visible="true" />
    <inkscape:path-effect
       effect="spiro"
       id="path-effect89603"
       is_visible="true" />
    <inkscape:path-effect
       effect="spiro"
       id="path-effect89599"
       is_visible="true" />
    <inkscape:path-effect
       effect="spiro"
       id="path-effect89576"
       is_visible="true" />
    <marker
       inkscape:isstock="true"
       style="overflow:visible"
       id="marker88064"
       refX="0"
       refY="0"
       orient="auto"
       inkscape:stockid="Arrow1Mstart">
      <path
         transform="matrix(0.4,0,0,0.4,4,0)"
         style="fill:#000000;fill-opacity:1;fill-rule:evenodd;stroke:#000000;stroke-width:1.00000003pt;stroke-opacity:1"
         d="M 0,0 5,-5 -12.5,0 5,5 Z"
         id="path88062"
         inkscape:connector-curvature="0" />
    </marker>
    <marker
       inkscape:stockid="Arrow1Mstart"
       orient="auto"
       refY="0"
       refX="0"
       id="marker87884"
       style="overflow:visible"
       inkscape:isstock="true">
      <path
         id="path87882"
         d="M 0,0 5,-5 -12.5,0 5,5 Z"
         style="fill:#000000;fill-opacity:1;fill-rule:evenodd;stroke:#000000;stroke-width:1.00000003pt;stroke-opacity:1"
         transform="matrix(0.4,0,0,0.4,4,0)"
         inkscape:connector-curvature="0" />
    </marker>
    <marker
       inkscape:stockid="Arrow1Mstart"
       orient="auto"
       refY="0"
       refX="0"
       id="Arrow1Mstart"
       style="overflow:visible"
       inkscape:isstock="true"
       inkscape:collect="always">
      <path
         id="path87356"
         d="M 0,0 5,-5 -12.5,0 5,5 Z"
         style="fill:#000000;fill-opacity:1;fill-rule:evenodd;stroke:#000000;stroke-width:1.00000003pt;stroke-opacity:1"
         transform="matrix(0.4,0,0,0.4,4,0)"
         inkscape:connector-curvature="0" />
    </marker>
    <marker
       inkscape:stockid="Arrow1Lstart"
       orient="auto"
       refY="0"
       refX="0"
       id="marker87812"
       style="overflow:visible"
       inkscape:isstock="true">
      <path
         id="path87810"
         d="M 0,0 5,-5 -12.5,0 5,5 Z"
         style="fill:#000000;fill-opacity:1;fill-rule:evenodd;stroke:#000000;stroke-width:1.00000003pt;stroke-opacity:1"
         transform="matrix(0.8,0,0,0.8,10,0)"
         inkscape:connector-curvature="0" />
    </marker>
    <marker
       inkscape:stockid="Arrow1Lstart"
       orient="auto"
       refY="0"
       refX="0"
       id="marker87784"
       style="overflow:visible"
       inkscape:isstock="true">
      <path
         id="path87782"
         d="M 0,0 5,-5 -12.5,0 5,5 Z"
         style="fill:#000000;fill-opacity:1;fill-rule:evenodd;stroke:#000000;stroke-width:1.00000003pt;stroke-opacity:1"
         transform="matrix(0.8,0,0,0.8,10,0)"
         inkscape:connector-curvature="0" />
    </marker>
    <marker
       inkscape:stockid="Arrow1Lstart"
       orient="auto"
       refY="0"
       refX="0"
       id="Arrow1Lstart"
       style="overflow:visible"
       inkscape:isstock="true">
      <path
         id="path87350"
         d="M 0,0 5,-5 -12.5,0 5,5 Z"
         style="fill:#000000;fill-opacity:1;fill-rule:evenodd;stroke:#000000;stroke-width:1.00000003pt;stroke-opacity:1"
         transform="matrix(0.8,0,0,0.8,10,0)"
         inkscape:connector-curvature="0" />
    </marker>
  </defs>
  <sodipodi:namedview
     id="base"
     pagecolor="#ffffff"
     bordercolor="#666666"
     borderopacity="1.0"
     inkscape:pageopacity="0.0"
     inkscape:pageshadow="2"
     inkscape:zoom="0.737016"
     inkscape:cx="317.31885"
     inkscape:cy="200.6597"
     inkscape:document-units="mm"
     inkscape:current-layer="layer1"
     showgrid="false"
     inkscape:window-width="1366"
     inkscape:window-height="708"
     inkscape:window-x="0"
     inkscape:window-y="0"
     inkscape:window-maximized="1" />
  <metadata
     id="metadata5">
    <rdf:RDF>
      <cc:Work
         rdf:about="">
        <dc:format>image/svg+xml</dc:format>
        <dc:type
           rdf:resource="http://purl.org/dc/dcmitype/StillImage" />
        <dc:title></dc:title>
      </cc:Work>
    </rdf:RDF>
  </metadata>
  <g
     inkscape:label="Layer 1"
     inkscape:groupmode="layer"
     id="layer1"
     style="display:inline"
     transform="translate(0,-177)">
    <path
       style="fill:none;stroke:#000000;stroke-width:0.37217835;stroke-linecap:butt;stroke-linejoin:miter;stroke-miterlimit:4;stroke-dasharray:none;stroke-opacity:1;marker-start:url(#marker87884)"
       d="m 78.31644,186.3745 v 75.51655"
       id="path4518"
       inkscape:connector-curvature="0" />
    <path
       inkscape:connector-curvature="0"
       id="path4520"
       d="M 153.83301,261.89105 H 78.31644"
       style="fill:none;stroke:#000000;stroke-width:0.40199748;stroke-linecap:butt;stroke-linejoin:miter;stroke-miterlimit:4;stroke-dasharray:none;stroke-opacity:1;marker-start:url(#Arrow1Mstart);image-rendering:auto" />
    <path
       style="fill:none;stroke:#000000;stroke-width:0.40199748;stroke-linecap:butt;stroke-linejoin:miter;stroke-miterlimit:4;stroke-dasharray:none;stroke-opacity:1;marker-start:url(#marker88064);image-rendering:auto"
       d="M 51.89865,288.17101 78.3496,261.85773"
       id="path88060"
       inkscape:connector-curvature="0"
       inkscape:transform-center-x="-12.88609"
       inkscape:transform-center-y="3.7007641" />
    <text
       xml:space="preserve"
       style="font-style:normal;font-weight:normal;font-size:3.78175378px;line-height:1.25;font-family:sans-serif;letter-spacing:0px;word-spacing:0px;fill:#000000;fill-opacity:1;stroke:none;stroke-width:0.17726971"
       x="70.3228"
       y="185.42303"
       id="text89556"><tspan
         sodipodi:role="line"
         x="70.3228"
         y="185.42303"
         style="font-size:3.78175378px;stroke-width:0.17726971"
         id="tspan89558">$z$</tspan></text>
    <text
       id="text89564"
       y="267.32312"
       x="151.9249"
       style="font-style:normal;font-weight:normal;font-size:3.78175378px;line-height:1.25;font-family:sans-serif;letter-spacing:0px;word-spacing:0px;fill:#000000;fill-opacity:1;stroke:none;stroke-width:0.17726971"
       xml:space="preserve"><tspan
         style="font-size:3.78175378px;stroke-width:0.17726971"
         y="267.32312"
         x="151.9249"
         sodipodi:role="line"
         id="tspan89566">$y$</tspan></text>
    <text
       xml:space="preserve"
       style="font-style:normal;font-weight:normal;font-size:3.78175378px;line-height:1.25;font-family:sans-serif;letter-spacing:0px;word-spacing:0px;fill:#000000;fill-opacity:1;stroke:none;stroke-width:0.17726971"
       x="53.845139"
       y="290.89441"
       id="text89572"><tspan
         id="tspan89570"
         sodipodi:role="line"
         x="53.845139"
         y="290.89441"
         style="font-size:3.78175378px;stroke-width:0.17726971">$x$</tspan></text>
    <path
       style="fill:none;stroke:#000000;stroke-width:0.55314571;stroke-linecap:butt;stroke-linejoin:miter;stroke-miterlimit:4;stroke-dasharray:none;stroke-opacity:1"
       d="m 80.039312,104.21559 c 0.215676,3.59127 0.414067,7.19787 1.118819,10.72591 0.704752,3.52804 1.940333,7.00194 4.059673,9.90919 2.119341,2.90726 5.185773,5.21485 8.702545,5.97383 1.758386,0.37949 3.607784,0.3664 5.345058,-0.1003 1.737273,-0.46671 3.357513,-1.39272 4.596083,-2.69728 1.72025,-1.8119 2.62969,-4.23657 3.31587,-6.63895 0.68619,-2.40237 1.20204,-4.8786 2.3154,-7.11526 1.30408,-2.6198 3.38255,-4.79818 5.73436,-6.53972 2.35181,-1.74154 4.97998,-3.0719 7.63779,-4.29665 5.31562,-2.44951 10.98868,-4.635168 14.98828,-8.908229 2.47329,-2.642393 4.17032,-5.994295 4.88323,-9.542699 0.71292,-3.548404 0.44532,-7.282479 -0.72064,-10.708838 -1.16597,-3.42636 -3.22289,-6.539096 -5.88503,-8.991116 -2.66214,-2.452021 -5.92174,-4.24241 -9.40634,-5.220644 -3.05638,-0.858019 -6.24654,-1.094917 -9.38264,-1.587394 -3.13611,-0.492478 -6.31171,-1.278599 -8.92598,-3.079509 -2.173,-1.496929 -3.86279,-3.631362 -6.10288,-5.025898 -1.72432,-1.073451 -3.733597,-1.668981 -5.762062,-1.773376 -2.028465,-0.104394 -4.07324,0.276619 -5.953709,1.044345 -3.760939,1.535452 -6.788708,4.585851 -8.751462,8.142516 -1.962755,3.556665 -2.921375,7.598303 -3.289945,11.643847 -0.368569,4.045544 -0.167939,8.119338 0.06366,12.175029 0.430554,7.539644 0.967197,15.07285 1.419918,22.611196 z"
       id="path89597"
       inkscape:connector-curvature="0"
       inkscape:path-effect="#path-effect89599"
       inkscape:original-d="m 80.039312,104.21559 c 2.168112,9.20698 14.652342,19.22644 23.822178,23.81135 11.89159,5.94581 1.26414,-5.01994 5.63127,-13.75421 5.26118,-10.52235 20.98008,-8.67408 28.36043,-19.744599 5.37202,-8.058044 -3.02782,-30.412817 -11.12878,-34.463297 -5.87306,-2.936531 -12.00206,-2.564717 -18.30862,-4.666903 -2.06679,-0.688927 -4.07175,-4.010334 -6.10288,-5.025898 -19.803273,-9.901637 -23.693516,20.446492 -23.693516,31.232361 0,6.660697 0.132204,17.460331 1.419918,22.611196 z"
       transform="matrix(0.66999575,0,0,0.66999575,44.65138,157.80912)"
       sodipodi:nodetypes="ccscscssc" />
    <path
       style="fill:none;stroke:#000000;stroke-width:0.37248975;stroke-linecap:butt;stroke-linejoin:miter;stroke-miterlimit:4;stroke-dasharray:none;stroke-opacity:1"
       d="m 97.373425,210.13029 c 1.68464,6.0232 6.099905,6.28806 10.145965,6.86985 2.15551,0.30992 13.86316,1.37809 21.38567,-0.0212 7.90205,-1.46979 11.37916,-2.41263 11.63976,-4.20265"
       id="path89643"
       inkscape:connector-curvature="0"
       sodipodi:nodetypes="cssc" />
    <path
       style="fill:none;stroke:#000000;stroke-width:0.37248975;stroke-linecap:butt;stroke-linejoin:miter;stroke-miterlimit:4;stroke-dasharray:2.97991812, 1.48995906;stroke-dashoffset:0;stroke-opacity:1"
       d="m 97.373425,210.13029 c 1.80667,-6.22939 11.328955,-4.10221 15.124035,-4.01876 2.03457,0.0447 7.97434,-0.23569 13.00341,0.4736 4.5277,0.6386 7.17228,1.1674 10.02269,1.31191 5.06889,0.25703 5.02126,4.87936 5.02126,4.87936"
       id="path89645"
       inkscape:connector-curvature="0"
       sodipodi:nodetypes="csssc" />
    <text
       xml:space="preserve"
       style="font-style:normal;font-weight:normal;font-size:3.78175378px;line-height:1.25;font-family:sans-serif;letter-spacing:0px;word-spacing:0px;fill:#000000;fill-opacity:1;stroke:none;stroke-width:0.17726971"
       x="102.88301"
       y="186.66687"
       id="text89649"><tspan
         sodipodi:role="line"
         id="tspan89647"
         x="102.88301"
         y="186.66687"
         style="font-size:3.78175378px;stroke-width:0.17726971">$D$</tspan></text>
    <text
       xml:space="preserve"
       style="font-style:normal;font-weight:normal;font-size:3.78175378px;line-height:1.25;font-family:sans-serif;letter-spacing:0px;word-spacing:0px;fill:#000000;fill-opacity:1;stroke:none;stroke-width:0.17726971"
       x="68.802139"
       y="261.21527"
       id="text89653"><tspan
         sodipodi:role="line"
         id="tspan89651"
         x="68.802139"
         y="261.21527"
         style="font-size:3.78175378px;stroke-width:0.17726971">$O$</tspan></text>
    <g
       id="g928"
       transform="matrix(1.2353509,0,0,1.2353509,-15.20243,-68.961307)">
      <path
         style="fill:none;stroke:#000000;stroke-width:0.30000001;stroke-linecap:butt;stroke-linejoin:miter;stroke-miterlimit:4;stroke-dasharray:none;stroke-opacity:1"
         d="m 91.127926,274.02511 c 1.34972,4.87647 4.887188,5.0909 8.128858,5.56192 1.726976,0.25092 11.107036,1.11572 17.134006,-0.0171 6.33106,-1.18996 9.11689,-1.9533 9.32568,-3.40252"
         id="path916"
         inkscape:connector-curvature="0"
         sodipodi:nodetypes="cssc" />
      <path
         style="fill:none;stroke:#000000;stroke-width:0.30000001;stroke-linecap:butt;stroke-linejoin:miter;stroke-miterlimit:4;stroke-dasharray:none;stroke-dashoffset:0;stroke-opacity:1"
         d="m 91.127922,274.02509 c 1.44749,-5.0434 9.076668,-3.32121 12.117238,-3.25364 1.63009,0.0362 6.38898,-0.19082 10.41823,0.38344 3.62755,0.51701 5.74636,0.94513 8.0301,1.06214 4.06113,0.20808 4.02298,3.95038 4.02298,3.95038"
         id="path918"
         inkscape:connector-curvature="0"
         sodipodi:nodetypes="csssc" />
    </g>
    <path
       style="fill:none;stroke:#000000;stroke-width:0.37060529;stroke-linecap:butt;stroke-linejoin:miter;stroke-miterlimit:4;stroke-dasharray:0.37060528, 1.11181587;stroke-dashoffset:0;stroke-opacity:1"
       d="m 97.372535,210.13005 v 59.42579"
       id="path930"
       inkscape:connector-curvature="0" />
    <path
       style="fill:none;stroke:#000000;stroke-width:0.37060529;stroke-linecap:butt;stroke-linejoin:miter;stroke-miterlimit:4;stroke-dasharray:0.37060528, 1.11181587;stroke-dashoffset:0;stroke-opacity:1"
       d="m 140.10154,212.77657 v 59.42579"
       id="path932"
       inkscape:connector-curvature="0" />
    <path
       style="fill:none;stroke:#000000;stroke-width:0.37060529;stroke-linecap:butt;stroke-linejoin:miter;stroke-miterlimit:4;stroke-dasharray:0.37060528, 1.11181587;stroke-dashoffset:0;stroke-opacity:1"
       d="M 106.97684,216.78148 V 276.4298"
       id="path934"
       inkscape:connector-curvature="0" />
    <text
       xml:space="preserve"
       style="font-style:normal;font-weight:normal;font-size:3.48643494px;line-height:1.25;font-family:sans-serif;letter-spacing:0px;word-spacing:0px;fill:#000000;fill-opacity:1;stroke:none;stroke-width:0.32685325"
       x="108.97248"
       y="270.22107"
       id="text938"><tspan
         sodipodi:role="line"
         id="tspan936"
         x="108.97248"
         y="270.22107"
         style="font-size:3.48643494px;stroke-width:0.32685325">$D'$</tspan></text>
    <path
       style="fill:none;stroke:#000000;stroke-width:0.37060529;stroke-linecap:butt;stroke-linejoin:miter;stroke-miterlimit:4;stroke-dasharray:none;stroke-opacity:1;marker-start:url(#DotM)"
       d="m 127.155,224.50863 -0.44348,48.56126"
       id="path940"
       inkscape:connector-curvature="0" />
    <path
       inkscape:connector-curvature="0"
       id="path1698"
       d="M 127.59848,203.2215 V 184.81702"
       style="fill:none;stroke:#000000;stroke-width:0.37060529;stroke-linecap:butt;stroke-linejoin:miter;stroke-miterlimit:4;stroke-dasharray:none;stroke-opacity:1;marker-start:url(#marker1702)"
       sodipodi:nodetypes="cc" />
    <path
       sodipodi:nodetypes="cc"
       style="fill:none;stroke:#000000;stroke-width:0.37060529;stroke-linecap:butt;stroke-linejoin:miter;stroke-miterlimit:4;stroke-dasharray:2.22363173, 2.22363173;stroke-dashoffset:0;stroke-opacity:1"
       d="m 127.155,224.50863 0.44348,-21.28713"
       id="path3654"
       inkscape:connector-curvature="0" />
    <text
       xml:space="preserve"
       style="font-style:normal;font-weight:normal;font-size:3.4864347px;line-height:1.25;font-family:sans-serif;letter-spacing:0px;word-spacing:0px;fill:#000000;fill-opacity:1;stroke:none;stroke-width:0.32685325"
       x="102.09853"
       y="199.48569"
       id="text4334"><tspan
         sodipodi:role="line"
         id="tspan4332"
         x="102.09853"
         y="199.48569"
         style="font-size:3.4864347px;stroke-width:0.32685325">$S_1$</tspan></text>
    <text
       id="text4338"
       y="238.73383"
       x="99.437607"
       style="font-style:normal;font-weight:normal;font-size:3.4864347px;line-height:1.25;font-family:sans-serif;letter-spacing:0px;word-spacing:0px;fill:#000000;fill-opacity:1;stroke:none;stroke-width:0.32685325"
       xml:space="preserve"><tspan
         style="font-size:3.4864347px;stroke-width:0.32685325"
         y="238.73383"
         x="99.437607"
         sodipodi:role="line"
         id="tspan4340">$S_2$</tspan></text>
    <text
       xml:space="preserve"
       style="font-style:normal;font-weight:normal;font-size:3.4864347px;line-height:1.25;font-family:sans-serif;letter-spacing:0px;word-spacing:0px;fill:#000000;fill-opacity:1;stroke:none;stroke-width:0.32685325"
       x="123.83984"
       y="282.03632"
       id="text4346"><tspan
         sodipodi:role="line"
         id="tspan4344"
         x="123.83984"
         y="282.03632"
         style="font-size:3.4864347px;stroke-width:0.32685325">$(x, y)$</tspan></text>
    <text
       id="text4350"
       y="231.37411"
       x="130.4707"
       style="font-style:normal;font-weight:normal;font-size:3.4864347px;line-height:1.25;font-family:sans-serif;letter-spacing:0px;word-spacing:0px;fill:#000000;fill-opacity:1;stroke:none;stroke-width:0.32685325"
       xml:space="preserve"><tspan
         style="font-size:3.4864347px;stroke-width:0.32685325"
         y="231.37411"
         x="130.4707"
         id="tspan4348"
         sodipodi:role="line">$(x, y, z_2)$</tspan></text>
    <text
       xml:space="preserve"
       style="font-style:normal;font-weight:normal;font-size:3.4864347px;line-height:1.25;font-family:sans-serif;letter-spacing:0px;word-spacing:0px;fill:#000000;fill-opacity:1;stroke:none;stroke-width:0.32685325"
       x="130.75589"
       y="198.13438"
       id="text4354"><tspan
         sodipodi:role="line"
         x="130.75589"
         y="198.13438"
         style="font-size:3.4864347px;stroke-width:0.32685325"
         id="tspan4356">$(x, y, z_1)$</tspan></text>
  </g>
</svg>
